<svg width="125" height="102" viewBox="0 0 125 102" fill="none" xmlns="http://www.w3.org/2000/svg">
<path d="M78.9672 0H45.2533C42.7217 0 40.676 2.04563 40.676 4.57723V38.2905C40.676 40.8221 42.7217 42.8678 45.2533 42.8678H78.9672C81.4988 42.8678 83.5445 40.8221 83.5445 38.2905V4.57723C83.5445 2.04563 81.4988 0 78.9672 0ZM74.0847 29.6672C71.7791 33.7472 67.8573 36.1432 63.0201 36.4031C62.6923 36.4257 62.3532 36.4257 62.0368 36.4257C56.7475 36.4257 52.5092 34.0297 50.0906 29.7124C47.0956 24.3328 47.4685 17.1448 51.0173 11.3922C51.0739 11.3018 51.153 11.2001 51.2547 11.0871C51.6503 10.5785 52.2041 9.88908 51.9893 9.12056C51.8989 8.7928 51.6955 8.57807 51.5372 8.45375C51.605 8.00168 51.7633 7.04103 51.8763 6.50984C52.1362 6.48724 52.837 6.47593 53.5829 6.47593C54.148 6.47593 54.521 6.47593 54.7357 6.49854C54.7583 7.16535 54.7131 8.93973 54.6453 9.31269C54.5549 9.55003 54.1028 10.2507 53.8202 10.6689C53.4925 11.1662 53.1873 11.6296 53.0065 11.9912C50.3279 17.3596 50.2036 22.7505 52.6674 26.7966C54.6792 30.0967 58.2054 32.0745 62.082 32.0745C65.9586 32.0745 69.5526 30.0741 71.5531 26.7062C73.9717 22.6714 73.8248 17.3031 71.1575 11.9912C70.988 11.6522 70.6828 11.1888 70.3551 10.6915C70.0725 10.2507 69.5865 9.51612 69.5187 9.33529C69.4509 8.97363 69.3944 7.21055 69.4396 6.49854C69.6317 6.49854 69.9708 6.47593 70.502 6.47593C71.2366 6.47593 71.9938 6.49854 72.2312 6.52114H72.2764C72.3894 7.06363 72.5589 8.01298 72.6268 8.47635C72.3894 8.69109 71.9825 9.15446 72.1747 9.92299C72.2538 10.2394 72.5024 10.6237 73.2145 11.6409C73.5083 12.059 73.8361 12.545 73.9491 12.7371C76.8198 18.0716 76.865 24.7057 74.0847 29.6672Z" fill="black"/>
<path d="M4.22694 83.0679H0V55.9436H16.7722V59.5715H4.22694V68.4095H14.9186V72.0373H4.22694V83.0679Z" fill="black"/>
<path d="M33.3521 83.6335C31.3516 83.6335 29.4981 83.2719 27.7915 82.5598C26.0849 81.8478 24.593 80.842 23.3272 79.5536C22.0614 78.2652 21.0668 76.762 20.3661 75.0328C19.6654 73.3037 19.3037 71.4502 19.3037 69.461C19.3037 67.4719 19.6541 65.6184 20.3661 63.9119C21.0668 62.194 22.0614 60.7021 23.3272 59.4363C24.593 58.1705 26.0849 57.176 27.7915 56.4527C29.4981 55.7294 31.3516 55.379 33.3521 55.379C35.3525 55.379 37.2061 55.7407 38.9127 56.4527C40.6193 57.176 42.1111 58.1705 43.3769 59.4363C44.6428 60.7134 45.6373 62.2053 46.3381 63.9119C47.0388 65.6184 47.4005 67.4719 47.4005 69.461C47.4005 71.4502 47.0501 73.3037 46.3381 75.0328C45.6373 76.762 44.6428 78.2652 43.3769 79.5536C42.1111 80.842 40.6193 81.8365 38.9127 82.5598C37.2061 83.2832 35.3525 83.6335 33.3521 83.6335ZM33.3521 79.8926C34.81 79.8926 36.1324 79.6327 37.3191 79.1015C38.4945 78.5703 39.523 77.8244 40.3819 76.875C41.2409 75.9144 41.8964 74.8068 42.3485 73.5297C42.8005 72.2526 43.0266 70.9077 43.0266 69.4724C43.0266 68.037 42.8005 66.6921 42.3485 65.4263C41.8964 64.1718 41.2409 63.0642 40.3819 62.1149C39.523 61.1655 38.5058 60.4309 37.3191 59.8997C36.1437 59.3685 34.8213 59.1086 33.3521 59.1086C31.8828 59.1086 30.5718 59.3685 29.3851 59.8997C28.2097 60.4309 27.1812 61.1655 26.3222 62.1149C25.4633 63.0642 24.8078 64.1605 24.3557 65.4263C23.9036 66.6921 23.6776 68.037 23.6776 69.4724C23.6776 70.9077 23.9036 72.2639 24.3557 73.5297C24.8078 74.7955 25.4633 75.9144 26.3222 76.875C27.1812 77.8357 28.1984 78.5703 29.3851 79.1015C30.5605 79.6327 31.8828 79.8926 33.3521 79.8926Z" fill="black"/>
<path d="M56.0123 83.0679H51.7854V55.9436H62.0928C65.2687 55.9436 67.7551 56.6782 69.5521 58.1587C71.3491 59.6393 72.242 61.7188 72.242 64.4086C72.242 66.3525 71.6543 68.0252 70.4789 69.4379C69.2922 70.8507 67.6534 71.7887 65.5512 72.2747L73.0557 83.0792H67.9812L61.0982 72.8737H56.0236V83.0792L56.0123 83.0679ZM56.0123 59.4132V69.3927H61.8216C63.7655 69.3927 65.2913 68.9746 66.365 68.1269C67.4387 67.2793 67.9812 66.0474 67.9812 64.4086C67.9812 62.7699 67.4387 61.5267 66.365 60.6903C65.2913 59.8427 63.7768 59.4245 61.8216 59.4245H56.0123V59.4132Z" fill="black"/>
<path d="M89.3306 83.6335C87.3302 83.6335 85.4766 83.2831 83.77 82.5711C82.0634 81.8591 80.5716 80.8871 79.2831 79.6213C77.9947 78.3668 77.0001 76.8637 76.2768 75.1458C75.5535 73.428 75.2031 71.5293 75.2031 69.461C75.2031 67.3928 75.5535 65.5845 76.2429 63.8892C76.9323 62.194 77.9043 60.7021 79.1475 59.4137C80.3907 58.1253 81.86 57.1308 83.5553 56.43C85.2506 55.7293 87.0928 55.3677 89.0933 55.3677C91.478 55.3677 93.5915 55.7971 95.4224 56.6674C97.2533 57.5376 98.7904 58.713 100.022 60.2049C101.254 61.6967 102.147 63.3807 102.712 65.2681H97.7845C97.4454 64.1153 96.8916 63.0642 96.1118 62.1375C95.332 61.2107 94.3374 60.4648 93.1507 59.9223C91.9527 59.3798 90.5625 59.1086 88.9803 59.1086C87.1606 59.1086 85.5331 59.538 84.1091 60.397C82.685 61.2559 81.5774 62.4539 80.7863 64.0023C79.9952 65.5506 79.5996 67.3928 79.5996 69.5401C79.5996 71.5293 79.9952 73.3149 80.7863 74.9085C81.5774 76.4907 82.7189 77.7566 84.1882 78.6833C85.6575 79.6214 87.4206 80.0847 89.4775 80.0847C91.1728 80.0847 92.6534 79.7683 93.9192 79.1241C95.185 78.4799 96.2248 77.5757 97.016 76.4003C97.8071 75.2249 98.3383 73.88 98.5869 72.343H89.0481V69.0203H103.051C103.108 71.1902 102.803 73.168 102.17 74.9537C101.525 76.7394 100.61 78.2877 99.4007 79.5987C98.1914 80.9098 96.7447 81.9156 95.0381 82.605C93.3315 83.2944 91.4328 83.6448 89.3306 83.6448V83.6335Z" fill="black"/>
<path d="M125 79.44V83.0679H107.493V55.9436H124.728V59.5715H111.731V67.2793H123.576V70.9072H111.731V79.4513H125V79.44Z" fill="black"/>
<path d="M17.8943 99.005C16.8318 99.005 15.9244 98.3841 15.5065 97.3096V98.8736H15.1006V90.0866H15.5185V94.0861C15.9124 92.9878 16.8198 92.3431 17.8943 92.3431C19.6016 92.3431 20.7 93.6563 20.7 95.6621C20.7 97.6678 19.6136 98.993 17.8943 98.993V99.005ZM17.8824 92.7012C16.4736 92.7012 15.4946 93.8115 15.4946 95.6501C15.4946 97.4887 16.4497 98.6587 17.8824 98.6587C19.3151 98.6587 20.2821 97.5365 20.2821 95.674C20.2821 93.8115 19.3628 92.7012 17.8824 92.7012Z" fill="black"/>
<path d="M23.1715 101.25H22.7417L23.6848 98.8022L21.1299 92.4865H21.5716L23.8998 98.265L26.1085 92.4865H26.5502L23.1834 101.25H23.1715Z" fill="black"/>
<path d="M34.1674 99.0635C33.5347 99.0635 32.9497 98.9442 32.4124 98.7173C31.8751 98.4905 31.4095 98.1681 31.0036 97.7622C30.5977 97.3443 30.2872 96.8668 30.0723 96.3057C29.8574 95.7445 29.738 95.1476 29.738 94.4909C29.738 93.8343 29.8455 93.2374 30.0604 92.6882C30.2753 92.139 30.5738 91.6495 30.9558 91.2316C31.3379 90.8138 31.8035 90.4795 32.3408 90.2526C32.878 90.0258 33.463 89.9064 34.0958 89.9064C34.8599 89.9064 35.5404 90.0497 36.1135 90.3362C36.6866 90.6228 37.1761 91.0167 37.5462 91.4943C37.9163 91.9718 38.179 92.5091 38.3342 93.0822H37.6895C37.5581 92.5927 37.3313 92.139 37.0209 91.745C36.7105 91.3391 36.3045 91.0167 35.815 90.778C35.3255 90.5392 34.7405 90.4198 34.0719 90.4198C33.3317 90.4198 32.687 90.5989 32.1259 90.957C31.5647 91.3152 31.1349 91.7928 30.8126 92.4016C30.5021 93.0105 30.335 93.703 30.335 94.4909C30.335 95.2789 30.5021 95.9594 30.8245 96.5683C31.1468 97.1772 31.5886 97.6548 32.1617 98.0129C32.7347 98.3592 33.3914 98.5382 34.1436 98.5382C34.848 98.5382 35.4569 98.395 35.9822 98.1204C36.5075 97.8338 36.9254 97.4399 37.2477 96.9265C37.5581 96.4131 37.7611 95.8042 37.8327 95.1118H34.0719V94.6103H38.4416C38.4297 95.2909 38.3103 95.9117 38.0954 96.4609C37.8805 97.0101 37.582 97.4876 37.2119 97.8697C36.8299 98.2636 36.3881 98.5621 35.8628 98.7651C35.3494 98.968 34.7763 99.0755 34.1436 99.0755L34.1674 99.0635Z" fill="black"/>
<path d="M40.5428 95.3265V98.8843H39.9817V92.4612H40.5189V94.0013C40.7339 93.4999 41.0562 93.1059 41.498 92.7955C41.9397 92.485 42.4173 92.3418 42.9545 92.3418V92.9387C42.5128 92.9387 42.1068 93.0342 41.7487 93.2372C41.3905 93.4402 41.092 93.7267 40.8771 94.0849C40.6622 94.443 40.5548 94.8609 40.5548 95.3265H40.5428Z" fill="black"/>
<path d="M48.0405 98.8844V97.5831C47.8734 98.0129 47.5869 98.3591 47.1929 98.6217C46.7989 98.8844 46.3332 99.0038 45.8199 99.0038C45.1632 99.0038 44.626 98.8366 44.232 98.4904C43.838 98.1561 43.635 97.6905 43.635 97.1294C43.635 96.4966 43.8857 96.031 44.3872 95.7087C44.8886 95.3863 45.6288 95.2311 46.6078 95.2311C46.8108 95.2311 47.0138 95.2311 47.2048 95.243C47.3958 95.243 47.6704 95.2669 48.0286 95.3027V94.7058C48.0286 94.1088 47.8734 93.6432 47.5749 93.3089C47.2764 92.9747 46.8466 92.7956 46.3094 92.7956C45.7244 92.7956 45.2707 92.9627 44.9364 93.3089C44.6021 93.6552 44.423 94.1088 44.4111 94.6939H43.8857C43.8857 94.2163 43.9932 93.8104 44.1961 93.4522C44.3991 93.106 44.6737 92.8314 45.0319 92.6284C45.3901 92.4374 45.8079 92.33 46.2974 92.33C47.0138 92.33 47.5749 92.5329 47.9808 92.9388C48.3748 93.3448 48.5778 93.9059 48.5778 94.6342V98.8725H48.0525L48.0405 98.8844ZM44.1961 97.1175C44.1961 97.5473 44.3514 97.8935 44.6498 98.1561C44.9483 98.4188 45.3542 98.5621 45.8557 98.5621C46.5123 98.5621 47.0257 98.3591 47.4197 97.9412C47.8137 97.5353 48.0047 96.9861 48.0047 96.3056V95.7087C47.6943 95.6848 47.4316 95.6609 47.2048 95.649C46.9899 95.637 46.7869 95.6251 46.6078 95.6251C45.796 95.6251 45.1871 95.7445 44.7812 95.9833C44.3752 96.222 44.1842 96.5921 44.1842 97.1055L44.1961 97.1175Z" fill="black"/>
<path d="M51.0489 95.0638V98.8843H50.4878V92.4612H51.0251V93.7744C51.2161 93.3446 51.5146 93.0104 51.8966 92.7358C52.2787 92.4731 52.7204 92.3418 53.186 92.3418C53.8666 92.3418 54.4038 92.5447 54.7978 92.9626C55.1918 93.3805 55.3948 93.9535 55.3948 94.7057V98.8843H54.8336V94.9206C54.8336 94.252 54.6784 93.7386 54.3799 93.3685C54.0695 93.0104 53.6397 92.8193 53.0666 92.8193C52.6965 92.8193 52.3503 92.9148 52.0518 93.1178C51.7533 93.3088 51.5026 93.5834 51.3235 93.9177C51.1444 94.252 51.0489 94.634 51.0489 95.0638Z" fill="black"/>
<path d="M56.8279 95.6618C56.8279 95.0051 56.9473 94.4201 57.1741 93.9187C57.4129 93.4173 57.7352 93.0233 58.1531 92.7606C58.571 92.486 59.0724 92.3547 59.6455 92.3547C60.1589 92.3547 60.6245 92.498 61.0304 92.7845C61.4483 93.071 61.7587 93.477 61.9736 93.9784V90.0983H62.5348V98.8972H61.9975V97.4049C61.7826 97.9063 61.4722 98.3122 61.0543 98.5987C60.6364 98.8853 60.1708 99.0285 59.6455 99.0285C59.0724 99.0285 58.5829 98.8853 58.1531 98.6107C57.7352 98.3361 57.401 97.9421 57.1741 97.4407C56.9473 96.9392 56.8279 96.3542 56.8279 95.6857V95.6618ZM57.401 95.6618C57.401 96.5572 57.6039 97.2616 58.0218 97.763C58.4397 98.2644 58.9889 98.5271 59.6933 98.5271C60.1589 98.5271 60.5648 98.4077 60.911 98.1689C61.2573 97.9302 61.5199 97.5959 61.711 97.1661C61.902 96.7363 61.9975 96.2229 61.9975 95.6379C61.9975 95.0529 61.902 94.5395 61.699 94.1217C61.4961 93.7038 61.2215 93.3815 60.8872 93.1546C60.5409 92.9278 60.1469 92.8203 59.6933 92.8203C58.9889 92.8203 58.4277 93.071 58.0218 93.5844C57.6159 94.0978 57.401 94.7783 57.401 95.6618Z" fill="black"/>
<path d="M66.9405 99.0156C66.3554 99.0156 65.854 98.8724 65.4123 98.5978C64.9705 98.3112 64.6243 97.9172 64.3855 97.4039C64.1348 96.8905 64.0154 96.2936 64.0154 95.613C64.0154 94.9803 64.1348 94.4191 64.3855 93.9296C64.6362 93.4402 64.9705 93.0581 65.4123 92.7716C65.8421 92.485 66.3316 92.3418 66.8808 92.3418C67.3344 92.3418 67.7284 92.4254 68.0866 92.5925C68.4328 92.7596 68.7433 92.9984 68.982 93.2969C69.2328 93.6073 69.4238 93.9655 69.5432 94.3833C69.6745 94.8012 69.7223 95.2787 69.6984 95.8041H64.3139V95.3623H69.1134C69.0775 94.5505 68.8507 93.9177 68.4687 93.464C68.0747 93.0104 67.5493 92.7835 66.8927 92.7835C66.439 92.7835 66.045 92.9029 65.6988 93.1417C65.3526 93.3805 65.078 93.7148 64.8869 94.1326C64.6959 94.5505 64.5885 95.04 64.5885 95.6011C64.5885 96.198 64.684 96.7233 64.875 97.1651C65.066 97.6068 65.3287 97.9531 65.6868 98.1918C66.045 98.4306 66.4629 98.55 66.9524 98.55C67.5493 98.55 68.0388 98.3829 68.4328 98.0605C68.8268 97.7382 69.0775 97.2845 69.185 96.7114H69.7342C69.6148 97.4158 69.3044 97.9769 68.803 98.3948C68.3015 98.8127 67.6807 99.0156 66.9643 99.0156H66.9405Z" fill="black"/>
<path d="M77.5657 99.0635C76.9568 99.0635 76.3957 98.9441 75.8823 98.7173C75.3689 98.4905 74.9153 98.1562 74.5332 97.7383C74.1512 97.3205 73.8527 96.831 73.6378 96.2698C73.4229 95.7087 73.3154 95.1118 73.3154 94.4671C73.3154 93.8224 73.4229 93.2254 73.6378 92.6643C73.8527 92.1151 74.1512 91.6256 74.5332 91.2077C74.9153 90.8018 75.3689 90.4675 75.8823 90.2407C76.3957 90.0139 76.9568 89.8945 77.5657 89.8945C78.2463 89.8945 78.8671 90.0377 79.4402 90.3123C80.0133 90.5989 80.4908 90.9928 80.8848 91.5062C81.2788 92.0196 81.5295 92.6165 81.6489 93.2971H81.0281C80.9326 92.7359 80.7177 92.2464 80.3953 91.8166C80.073 91.3868 79.667 91.0406 79.1775 90.7899C78.7 90.5392 78.1627 90.4198 77.5777 90.4198C77.0524 90.4198 76.5748 90.5153 76.1211 90.7302C75.6794 90.9331 75.2854 91.2197 74.963 91.5778C74.6407 91.936 74.378 92.3658 74.1989 92.8553C74.0198 93.3448 73.9243 93.8821 73.9243 94.4551C73.9243 95.0282 74.0198 95.5774 74.1989 96.0669C74.378 96.5564 74.6287 96.9981 74.963 97.3563C75.2973 97.7144 75.6794 98.0129 76.1211 98.2159C76.5629 98.4188 77.0524 98.5263 77.5777 98.5263C78.1746 98.5263 78.7119 98.4069 79.2014 98.1562C79.6909 97.9055 80.0968 97.5592 80.4192 97.1294C80.7415 96.6996 80.9445 96.1982 81.04 95.6371H81.6608C81.5415 96.3176 81.2907 96.9145 80.9087 97.4279C80.5147 97.9413 80.0371 98.3472 79.4641 98.6337C78.891 98.9203 78.2582 99.0635 77.5896 99.0635H77.5657Z" fill="black"/>
<path d="M83.7264 95.064V98.8844H83.1653V90.0854H83.7264V93.7626C83.9174 93.3448 84.204 93.0105 84.586 92.7359C84.9681 92.4732 85.3979 92.3419 85.8755 92.3419C86.556 92.3419 87.0932 92.5449 87.4872 92.9627C87.8812 93.3806 88.0842 93.9537 88.0842 94.7058V98.8844H87.523V94.9207C87.523 94.2521 87.3678 93.7387 87.0694 93.3686C86.7589 93.0105 86.3291 92.8195 85.7561 92.8195C85.386 92.8195 85.0397 92.915 84.7412 93.1179C84.4428 93.309 84.192 93.5836 84.013 93.9178C83.8339 94.2521 83.7384 94.6342 83.7384 95.064H83.7264Z" fill="black"/>
<path d="M93.9702 98.8844V97.5831C93.8031 98.0129 93.5165 98.3591 93.1225 98.6217C92.7285 98.8844 92.2629 99.0038 91.7495 99.0038C91.0929 99.0038 90.5556 98.8366 90.1617 98.4904C89.7677 98.1561 89.5647 97.6905 89.5647 97.1294C89.5647 96.4966 89.8154 96.031 90.3169 95.7087C90.8183 95.3863 91.5585 95.2311 92.5375 95.2311C92.7405 95.2311 92.9435 95.2311 93.1345 95.243C93.3255 95.243 93.6001 95.2669 93.9583 95.3027V94.7058C93.9583 94.1088 93.8031 93.6432 93.5046 93.3089C93.2061 92.9747 92.7763 92.7956 92.239 92.7956C91.654 92.7956 91.2003 92.9627 90.8661 93.3089C90.5318 93.6552 90.3527 94.1088 90.3407 94.6939H89.8154C89.8154 94.2163 89.9229 93.8104 90.1258 93.4522C90.3288 93.106 90.6034 92.8314 90.9616 92.6284C91.3197 92.4374 91.7376 92.33 92.2271 92.33C92.9435 92.33 93.5046 92.5329 93.9105 92.9388C94.3045 93.3448 94.5075 93.9059 94.5075 94.6342V98.8725H93.9822L93.9702 98.8844ZM90.1258 97.1175C90.1258 97.5473 90.281 97.8935 90.5795 98.1561C90.878 98.4188 91.2839 98.5621 91.7854 98.5621C92.442 98.5621 92.9554 98.3591 93.3494 97.9412C93.7434 97.5353 93.9344 96.9861 93.9344 96.3056V95.7087C93.624 95.6848 93.3613 95.6609 93.1345 95.649C92.9196 95.637 92.7166 95.6251 92.5375 95.6251C91.7257 95.6251 91.1168 95.7445 90.7108 95.9833C90.3049 96.222 90.1139 96.5921 90.1139 97.1055L90.1258 97.1175Z" fill="black"/>
<path d="M96.9911 95.3265V98.8843H96.4299V92.4612H96.9672V94.0013C97.1821 93.4999 97.5044 93.1059 97.9462 92.7955C98.3879 92.485 98.8655 92.3418 99.4028 92.3418V92.9387C98.961 92.9387 98.5551 93.0342 98.1969 93.2372C97.8387 93.4402 97.5403 93.7267 97.3254 94.0849C97.1105 94.443 97.003 94.8609 97.003 95.3265H96.9911Z" fill="black"/>
<path d="M103.939 98.3595V98.8609C103.796 98.9206 103.653 98.9564 103.534 98.9803C103.402 99.0042 103.283 99.0161 103.151 99.0161C102.829 99.0161 102.531 98.9564 102.256 98.837C101.981 98.7176 101.767 98.5266 101.611 98.252C101.444 97.9774 101.361 97.6193 101.361 97.1775V92.9392H99.7847V92.4736H101.361V90.5634H101.934V92.4736H103.999V92.9392H101.934V97.0701C101.934 97.6073 102.053 97.9774 102.304 98.1804C102.555 98.3834 102.853 98.4908 103.223 98.4908C103.354 98.4908 103.474 98.4908 103.581 98.4669C103.689 98.4431 103.808 98.4192 103.939 98.3714V98.3595Z" fill="black"/>
<path d="M107.569 99.0156C106.984 99.0156 106.482 98.8724 106.041 98.5978C105.599 98.3112 105.253 97.9172 105.014 97.4039C104.763 96.8905 104.644 96.2936 104.644 95.613C104.644 94.9803 104.763 94.4191 105.014 93.9296C105.265 93.4402 105.599 93.0581 106.041 92.7716C106.47 92.485 106.96 92.3418 107.509 92.3418C107.963 92.3418 108.357 92.4254 108.715 92.5925C109.061 92.7596 109.372 92.9984 109.61 93.2969C109.861 93.6073 110.052 93.9655 110.172 94.3833C110.303 94.8012 110.351 95.2787 110.327 95.8041H104.942V95.3623H109.742C109.706 94.5505 109.479 93.9177 109.097 93.464C108.703 93.0104 108.178 92.7835 107.521 92.7835C107.067 92.7835 106.673 92.9029 106.327 93.1417C105.981 93.3805 105.706 93.7148 105.515 94.1326C105.324 94.5505 105.217 95.04 105.217 95.6011C105.217 96.198 105.312 96.7233 105.503 97.1651C105.694 97.6068 105.957 97.9531 106.315 98.1918C106.673 98.4306 107.091 98.55 107.581 98.55C108.178 98.55 108.667 98.3829 109.061 98.0605C109.455 97.7382 109.706 97.2845 109.813 96.7114H110.363C110.243 97.4158 109.933 97.9769 109.431 98.3948C108.93 98.8127 108.309 99.0156 107.593 99.0156H107.569Z" fill="black"/>
</svg>
