<svg width="41" height="41" viewBox="0 0 41 41" fill="none" xmlns="http://www.w3.org/2000/svg">
<path d="M20.4996 38.4167C19.4996 38.4167 18.5163 38.1833 17.7163 37.7333L9.83294 33.1833C6.56628 30.9833 6.34961 30.5833 6.34961 27.1333V18.8667C6.34961 15.4167 6.56628 15.0167 9.76628 12.8667L17.7329 8.26666C19.3163 7.35 21.6996 7.35 23.2829 8.26666L31.1663 12.8167C34.4329 15.0167 34.6496 15.4167 34.6496 18.8667V27.1333C34.6496 30.5833 34.4329 30.9833 31.2329 33.1333L23.2663 37.7333C22.4829 38.2 21.4829 38.4167 20.4996 38.4167ZM20.4996 10.0833C19.9329 10.0833 19.3663 10.2 18.9663 10.4333L11.0829 14.9833C8.84961 16.5 8.84961 16.5 8.84961 18.8667V27.1333C8.84961 29.5 8.84961 29.5 11.1663 31.0667L18.9829 35.5667C19.7829 36.0333 21.2329 36.0333 22.0329 35.5667L29.9163 31.0167C32.1496 29.5 32.1496 29.5 32.1496 27.1333V18.8667C32.1496 16.5 32.1496 16.5 29.8329 14.9333L22.0163 10.4333C21.6329 10.2 21.0663 10.0833 20.4996 10.0833Z" fill="#5CB5BD"/>
<path d="M29.6663 14.4667C28.983 14.4667 28.4163 13.9 28.4163 13.2167V8.83334C28.4163 6.20001 27.2997 5.08334 24.6663 5.08334H16.333C13.6997 5.08334 12.583 6.20001 12.583 8.83334V13.1C12.583 13.7833 12.0163 14.35 11.333 14.35C10.6497 14.35 10.083 13.8 10.083 13.1V8.83334C10.083 4.80001 12.2997 2.58334 16.333 2.58334H24.6663C28.6997 2.58334 30.9163 4.80001 30.9163 8.83334V13.2167C30.9163 13.9 30.3497 14.4667 29.6663 14.4667Z" fill="#5CB5BD"/>
<path d="M23.2167 29.8833C22.8667 29.8833 22.5001 29.8167 22.1334 29.6667L20.5001 29.0333L18.8667 29.6833C17.9834 30.0333 17.0834 29.95 16.4167 29.4667C15.7501 28.9833 15.4001 28.15 15.4501 27.2L15.5501 25.45L14.4334 24.1C13.8334 23.35 13.6334 22.4833 13.9001 21.6833C14.1501 20.9 14.8334 20.3 15.7501 20.0667L17.4501 19.6333L18.4001 18.15C19.4167 16.55 21.6001 16.55 22.6167 18.15L23.5667 19.6333L25.2667 20.0667C26.1834 20.3 26.8667 20.9 27.1167 21.6833C27.3667 22.4667 27.1667 23.35 26.5667 24.0833L25.4501 25.4333L25.5501 27.1833C25.6001 28.1333 25.2501 28.95 24.5834 29.45C24.1834 29.7333 23.7167 29.8833 23.2167 29.8833ZM16.3667 22.5L17.4834 23.85C17.8667 24.3 18.0834 25.0167 18.0501 25.6L17.9501 27.35L19.5834 26.7C20.1334 26.4833 20.8667 26.4833 21.4167 26.7L23.0501 27.35L22.9501 25.6C22.9167 25.0167 23.1334 24.3167 23.5167 23.85L24.6334 22.5L22.9334 22.0667C22.3667 21.9167 21.7667 21.4833 21.4501 21L20.5167 19.5333L19.5667 21C19.2501 21.5 18.6501 21.9333 18.0834 22.0833L16.3667 22.5Z" fill="#5CB5BD"/>
</svg>
