<svg width="22" height="15" viewBox="0 0 22 15" fill="none" xmlns="http://www.w3.org/2000/svg">
<path d="M11.5154 2.33081L13.8716 2.5921C14.107 1.91016 14.0047 0.333076 14.9143 0.446494C15.8448 0.562783 14.9785 2.40403 14.8788 3.01204L16.938 3.93589C17.4599 3.57913 17.7668 1.84627 18.5295 2.07813C19.5669 2.39326 17.8941 4.49222 17.9951 4.6487L19.8023 6.02121C20.4562 5.76781 20.8935 4.42976 21.6457 4.67526C22.7415 5.03346 20.9795 6.54235 20.6103 6.90414C20.6089 7.20994 21.7283 8.13308 21.727 8.6772C21.7257 9.15599 20.2594 10.8781 19.8673 11.2707C14.5215 16.6258 5.82269 16.1915 1.10641 10.1107C-0.176925 8.45682 0.297195 8.57598 1.28216 6.92209C0.968701 6.38443 -0.380213 5.53308 0.103743 4.77935C0.603438 4.0005 1.74579 5.70679 2.12285 6.00182L3.90195 4.56974C3.82391 3.97968 2.52221 2.54616 3.28946 2.12695C4.18721 1.63667 4.48755 3.44202 4.97019 3.95743L6.97684 3.01994C7.21292 2.65097 6.20107 0.877195 6.9034 0.48741C7.89951 -0.065323 7.86541 2.33153 8.1428 2.54545L10.3875 2.32579C10.4682 1.82617 10.2203 0.272778 10.6019 0.00358918L11.3403 0C11.703 0.319437 11.4321 1.79674 11.5167 2.33153L11.5154 2.33081ZM15.6572 8.68294C15.6572 5.85754 13.5647 3.56693 10.9836 3.56693C8.40248 3.56693 6.30993 5.85754 6.30993 8.68294C6.30993 11.5083 8.40248 13.799 10.9836 13.799C13.5647 13.799 15.6572 11.5083 15.6572 8.68294ZM6.5283 12.8356C5.09873 10.7259 4.72428 8.1259 5.83778 5.73694C5.93745 5.52375 6.61093 4.60922 6.52699 4.51447C4.58001 5.36439 2.77731 6.83738 1.56086 8.69945C2.83436 10.5012 4.54329 12.0388 6.5283 12.8356ZM15.3779 12.8356C17.4042 12.0438 19.1564 10.5156 20.4837 8.67576C19.1577 6.84456 17.4258 5.39166 15.4415 4.51375C15.5241 4.92938 15.8848 5.22082 16.0678 5.60199C17.1957 7.9486 16.9603 10.812 15.3779 12.8363V12.8356Z" fill="#A0A5AC"/>
<path d="M8.00315 8.06316C8.3791 8.07823 8.52751 8.52831 8.82892 8.72428C10.264 9.65675 11.8169 7.78176 10.9662 6.24201C10.7479 5.8472 10.3667 5.87376 10.3641 5.47105C11.8208 5.19971 13.6188 6.33245 13.8319 8.00645C14.4838 13.1282 7.54548 13.167 8.00315 8.06316Z" fill="#A0A5AC"/>
</svg>
