<svg width="22" height="15" viewBox="0 0 22 15" fill="none" xmlns="http://www.w3.org/2000/svg">
<path d="M18.094 7.42163C17.8612 7.8378 19.2208 9.03908 18.8922 9.61337L18.4626 9.94603C17.7563 10.033 17.4001 8.27861 17.0014 8.20195L14.9656 8.96926C14.7367 9.24443 16.2832 12.1344 14.3963 11.3095L13.7628 9.34505L11.5952 9.61406C11.5237 10.4183 11.9801 12.2897 10.6809 11.9619C10.3346 11.8742 10.5189 9.98368 10.4743 9.61406L8.17748 9.34642C7.83381 9.95083 7.99319 11.5785 7.05334 11.4396C6.10169 11.2986 7.08614 9.67634 7.05137 9.08768L4.88311 8.20127C4.60831 8.63797 4.15183 10.0275 3.57599 9.97615C2.45185 9.87553 3.69667 8.06642 3.9695 7.59686L2.12195 6.15874C1.70417 6.51742 0.752525 7.99797 0.158974 7.37098C-0.489012 6.68649 1.03126 5.77201 1.36903 5.25658C1.09423 4.83767 0.126837 3.967 0.267847 3.46253C0.340647 3.20242 0.810896 2.88619 1.03979 3.12371C2.56925 4.94856 4.06788 6.49004 6.24008 7.46407C11.0377 9.61611 16.3468 8.31763 19.8872 4.41329C20.1902 4.07926 21.0887 2.3872 21.6357 3.23528C22.1158 3.97932 20.6571 4.95335 20.705 5.23947C20.9903 5.68028 22.3099 6.61461 21.9328 7.18822C21.2179 8.27656 20.2131 6.03348 19.7776 6.1122L18.094 7.423V7.42163Z" fill="#A0A5AC"/>
</svg>
