<svg width="125" height="102" viewBox="0 0 125 102" fill="none" xmlns="http://www.w3.org/2000/svg">
<path d="M78.9669 0H45.2531C42.7214 0 40.6758 2.04563 40.6758 4.57723V38.2905C40.6758 40.8221 42.7214 42.8678 45.2531 42.8678H78.9669C81.4986 42.8678 83.5442 40.8221 83.5442 38.2905V4.57723C83.5442 2.04563 81.4986 0 78.9669 0ZM74.0845 29.6672C71.7789 33.7472 67.8571 36.1432 63.0198 36.4031C62.6921 36.4257 62.353 36.4257 62.0365 36.4257C56.7472 36.4257 52.509 34.0297 50.0903 29.7124C47.0953 24.3328 47.4683 17.1448 51.0171 11.3922C51.0736 11.3018 51.1527 11.2001 51.2544 11.0871C51.65 10.5785 52.2038 9.88908 51.9891 9.12056C51.8987 8.7928 51.6952 8.57807 51.537 8.45375C51.6048 8.00168 51.763 7.04103 51.8761 6.50984C52.136 6.48724 52.8367 6.47593 53.5827 6.47593C54.1478 6.47593 54.5207 6.47593 54.7355 6.49854C54.7581 7.16535 54.7129 8.93973 54.645 9.31269C54.5546 9.55003 54.1025 10.2507 53.82 10.6689C53.4922 11.1662 53.1871 11.6296 53.0063 11.9912C50.3277 17.3596 50.2034 22.7505 52.6672 26.7966C54.6789 30.0967 58.2052 32.0745 62.0818 32.0745C65.9583 32.0745 69.5524 30.0741 71.5528 26.7062C73.9714 22.6714 73.8245 17.3031 71.1572 11.9912C70.9877 11.6522 70.6826 11.1888 70.3548 10.6915C70.0723 10.2507 69.5863 9.51612 69.5185 9.33529C69.4506 8.97363 69.3941 7.21055 69.4393 6.49854C69.6315 6.49854 69.9705 6.47593 70.5017 6.47593C71.2364 6.47593 71.9936 6.49854 72.2309 6.52114H72.2761C72.3892 7.06363 72.5587 8.01298 72.6265 8.47635C72.3892 8.69109 71.9823 9.15446 72.1744 9.92299C72.2535 10.2394 72.5022 10.6237 73.2142 11.6409C73.5081 12.059 73.8358 12.545 73.9488 12.7371C76.8195 18.0716 76.8648 24.7057 74.0845 29.6672Z" fill="black"/>
<path d="M4.22694 83.0679H0V55.9436H16.7722V59.5715H4.22694V68.4095H14.9186V72.0373H4.22694V83.0679Z" fill="black"/>
<path d="M33.3521 83.6335C31.3516 83.6335 29.4981 83.2719 27.7915 82.5598C26.0849 81.8478 24.593 80.842 23.3272 79.5536C22.0614 78.2652 21.0668 76.762 20.3661 75.0328C19.6654 73.3037 19.3037 71.4502 19.3037 69.461C19.3037 67.4719 19.6541 65.6184 20.3661 63.9119C21.0668 62.194 22.0614 60.7021 23.3272 59.4363C24.593 58.1705 26.0849 57.176 27.7915 56.4527C29.4981 55.7294 31.3516 55.379 33.3521 55.379C35.3525 55.379 37.2061 55.7407 38.9127 56.4527C40.6193 57.176 42.1111 58.1705 43.3769 59.4363C44.6428 60.7134 45.6373 62.2053 46.3381 63.9119C47.0388 65.6184 47.4005 67.4719 47.4005 69.461C47.4005 71.4502 47.0501 73.3037 46.3381 75.0328C45.6373 76.762 44.6428 78.2652 43.3769 79.5536C42.1111 80.842 40.6193 81.8365 38.9127 82.5598C37.2061 83.2832 35.3525 83.6335 33.3521 83.6335ZM33.3521 79.8926C34.81 79.8926 36.1324 79.6327 37.3191 79.1015C38.4945 78.5703 39.523 77.8244 40.3819 76.875C41.2409 75.9144 41.8964 74.8068 42.3485 73.5297C42.8005 72.2526 43.0266 70.9077 43.0266 69.4724C43.0266 68.037 42.8005 66.6921 42.3485 65.4263C41.8964 64.1718 41.2409 63.0642 40.3819 62.1149C39.523 61.1655 38.5058 60.4309 37.3191 59.8997C36.1437 59.3685 34.8213 59.1086 33.3521 59.1086C31.8828 59.1086 30.5718 59.3685 29.3851 59.8997C28.2097 60.4309 27.1812 61.1655 26.3222 62.1149C25.4633 63.0642 24.8078 64.1605 24.3557 65.4263C23.9036 66.6921 23.6776 68.037 23.6776 69.4724C23.6776 70.9077 23.9036 72.2639 24.3557 73.5297C24.8078 74.7955 25.4633 75.9144 26.3222 76.875C27.1812 77.8357 28.1984 78.5703 29.3851 79.1015C30.5605 79.6327 31.8828 79.8926 33.3521 79.8926Z" fill="black"/>
<path d="M56.0121 83.0679H51.7852V55.9436H62.0926C65.2684 55.9436 67.7549 56.6782 69.5519 58.1587C71.3489 59.6393 72.2418 61.7188 72.2418 64.4086C72.2418 66.3525 71.6541 68.0252 70.4786 69.4379C69.2919 70.8507 67.6531 71.7887 65.551 72.2747L73.0555 83.0792H67.9809L61.098 72.8737H56.0234V83.0792L56.0121 83.0679ZM56.0121 59.4132V69.3927H61.8213C63.7653 69.3927 65.291 68.9746 66.3647 68.1269C67.4384 67.2793 67.9809 66.0474 67.9809 64.4086C67.9809 62.7699 67.4384 61.5267 66.3647 60.6903C65.291 59.8427 63.7766 59.4245 61.8213 59.4245H56.0121V59.4132Z" fill="black"/>
<path d="M89.3306 83.6335C87.3302 83.6335 85.4766 83.2831 83.77 82.5711C82.0634 81.8591 80.5716 80.8871 79.2831 79.6213C77.9947 78.3668 77.0001 76.8637 76.2768 75.1458C75.5535 73.428 75.2031 71.5293 75.2031 69.461C75.2031 67.3928 75.5535 65.5845 76.2429 63.8892C76.9323 62.194 77.9043 60.7021 79.1475 59.4137C80.3907 58.1253 81.86 57.1308 83.5553 56.43C85.2506 55.7293 87.0928 55.3677 89.0933 55.3677C91.478 55.3677 93.5915 55.7971 95.4224 56.6674C97.2533 57.5376 98.7904 58.713 100.022 60.2049C101.254 61.6967 102.147 63.3807 102.712 65.2681H97.7845C97.4454 64.1153 96.8916 63.0642 96.1118 62.1375C95.332 61.2107 94.3374 60.4648 93.1507 59.9223C91.9527 59.3798 90.5625 59.1086 88.9803 59.1086C87.1606 59.1086 85.5331 59.538 84.1091 60.397C82.685 61.2559 81.5774 62.4539 80.7863 64.0023C79.9952 65.5506 79.5996 67.3928 79.5996 69.5401C79.5996 71.5293 79.9952 73.3149 80.7863 74.9085C81.5774 76.4907 82.7189 77.7566 84.1882 78.6833C85.6575 79.6214 87.4206 80.0847 89.4775 80.0847C91.1728 80.0847 92.6534 79.7683 93.9192 79.1241C95.185 78.4799 96.2248 77.5757 97.016 76.4003C97.8071 75.2249 98.3383 73.88 98.5869 72.343H89.0481V69.0203H103.051C103.108 71.1902 102.803 73.168 102.17 74.9537C101.525 76.7394 100.61 78.2877 99.4007 79.5987C98.1914 80.9098 96.7447 81.9156 95.0381 82.605C93.3315 83.2944 91.4328 83.6448 89.3306 83.6448V83.6335Z" fill="black"/>
<path d="M125 79.44V83.0679H107.493V55.9436H124.729V59.5715H111.731V67.2793H123.576V70.9072H111.731V79.4513H125V79.44Z" fill="black"/>
<path d="M17.8943 99.005C16.8318 99.005 15.9244 98.3841 15.5065 97.3096V98.8736H15.1006V90.0866H15.5185V94.0861C15.9124 92.9878 16.8198 92.3431 17.8943 92.3431C19.6016 92.3431 20.7 93.6563 20.7 95.6621C20.7 97.6678 19.6136 98.993 17.8943 98.993V99.005ZM17.8824 92.7012C16.4736 92.7012 15.4946 93.8115 15.4946 95.6501C15.4946 97.4887 16.4497 98.6587 17.8824 98.6587C19.3151 98.6587 20.2821 97.5365 20.2821 95.674C20.2821 93.8115 19.3628 92.7012 17.8824 92.7012Z" fill="black"/>
<path d="M23.1715 101.25H22.7417L23.6848 98.8022L21.1299 92.4865H21.5716L23.8998 98.265L26.1085 92.4865H26.5502L23.1834 101.25H23.1715Z" fill="black"/>
<path d="M34.1677 99.0635C33.5349 99.0635 32.9499 98.9442 32.4126 98.7173C31.8754 98.4905 31.4098 98.1681 31.0038 97.7622C30.5979 97.3443 30.2875 96.8668 30.0726 96.3057C29.8577 95.7445 29.7383 95.1476 29.7383 94.4909C29.7383 93.8343 29.8457 93.2374 30.0606 92.6882C30.2755 92.139 30.574 91.6495 30.9561 91.2316C31.3381 90.8138 31.8037 90.4795 32.341 90.2526C32.8783 90.0258 33.4633 89.9064 34.096 89.9064C34.8601 89.9064 35.5407 90.0497 36.1138 90.3362C36.6868 90.6228 37.1763 91.0167 37.5464 91.4943C37.9166 91.9718 38.1792 92.5091 38.3344 93.0822H37.6897C37.5584 92.5927 37.3315 92.139 37.0211 91.745C36.7107 91.3391 36.3048 91.0167 35.8153 90.778C35.3258 90.5392 34.7408 90.4198 34.0722 90.4198C33.3319 90.4198 32.6872 90.5989 32.1261 90.957C31.565 91.3152 31.1352 91.7928 30.8128 92.4016C30.5024 93.0105 30.3352 93.703 30.3352 94.4909C30.3352 95.2789 30.5024 95.9594 30.8247 96.5683C31.1471 97.1772 31.5888 97.6548 32.1619 98.0129C32.735 98.3592 33.3916 98.5382 34.1438 98.5382C34.8482 98.5382 35.4571 98.395 35.9824 98.1204C36.5077 97.8338 36.9256 97.4399 37.248 96.9265C37.5584 96.4131 37.7613 95.8042 37.833 95.1118H34.0722V94.6103H38.4419C38.4299 95.2909 38.3105 95.9117 38.0956 96.4609C37.8807 97.0101 37.5823 97.4876 37.2121 97.8697C36.8301 98.2636 36.3884 98.5621 35.863 98.7651C35.3496 98.968 34.7766 99.0755 34.1438 99.0755L34.1677 99.0635Z" fill="black"/>
<path d="M40.5426 95.3265V98.8843H39.9814V92.4612H40.5187V94.0013C40.7336 93.4999 41.056 93.1059 41.4977 92.7955C41.9395 92.485 42.417 92.3418 42.9543 92.3418V92.9387C42.5125 92.9387 42.1066 93.0342 41.7484 93.2372C41.3903 93.4402 41.0918 93.7267 40.8769 94.0849C40.662 94.443 40.5545 94.8609 40.5545 95.3265H40.5426Z" fill="black"/>
<path d="M48.0413 98.8844V97.5831C47.8741 98.0129 47.5876 98.3591 47.1936 98.6217C46.7996 98.8844 46.334 99.0038 45.8206 99.0038C45.1639 99.0038 44.6267 98.8366 44.2327 98.4904C43.8387 98.1561 43.6357 97.6905 43.6357 97.1294C43.6357 96.4966 43.8865 96.031 44.3879 95.7087C44.8893 95.3863 45.6296 95.2311 46.6086 95.2311C46.8115 95.2311 47.0145 95.2311 47.2055 95.243C47.3966 95.243 47.6712 95.2669 48.0293 95.3027V94.7058C48.0293 94.1088 47.8741 93.6432 47.5756 93.3089C47.2772 92.9747 46.8474 92.7956 46.3101 92.7956C45.7251 92.7956 45.2714 92.9627 44.9371 93.3089C44.6028 93.6552 44.4237 94.1088 44.4118 94.6939H43.8865C43.8865 94.2163 43.9939 93.8104 44.1969 93.4522C44.3998 93.106 44.6744 92.8314 45.0326 92.6284C45.3908 92.4374 45.8087 92.33 46.2982 92.33C47.0145 92.33 47.5756 92.5329 47.9816 92.9388C48.3756 93.3448 48.5785 93.9059 48.5785 94.6342V98.8725H48.0532L48.0413 98.8844ZM44.1969 97.1175C44.1969 97.5473 44.3521 97.8935 44.6506 98.1561C44.949 98.4188 45.355 98.5621 45.8564 98.5621C46.5131 98.5621 47.0264 98.3591 47.4204 97.9412C47.8144 97.5353 48.0054 96.9861 48.0054 96.3056V95.7087C47.695 95.6848 47.4324 95.6609 47.2055 95.649C46.9906 95.637 46.7877 95.6251 46.6086 95.6251C45.7967 95.6251 45.1878 95.7445 44.7819 95.9833C44.376 96.222 44.1849 96.5921 44.1849 97.1055L44.1969 97.1175Z" fill="black"/>
<path d="M51.0494 95.0638V98.8843H50.4883V92.4612H51.0255V93.7744C51.2166 93.3446 51.515 93.0104 51.8971 92.7358C52.2791 92.4731 52.7209 92.3418 53.1865 92.3418C53.867 92.3418 54.4043 92.5447 54.7983 92.9626C55.1923 93.3805 55.3952 93.9535 55.3952 94.7057V98.8843H54.8341V94.9206C54.8341 94.252 54.6789 93.7386 54.3804 93.3685C54.07 93.0104 53.6402 92.8193 53.0671 92.8193C52.697 92.8193 52.3508 92.9148 52.0523 93.1178C51.7538 93.3088 51.5031 93.5834 51.324 93.9177C51.1449 94.252 51.0494 94.634 51.0494 95.0638Z" fill="black"/>
<path d="M56.8281 95.6618C56.8281 95.0051 56.9475 94.4201 57.1744 93.9187C57.4131 93.4173 57.7355 93.0233 58.1534 92.7606C58.5712 92.486 59.0727 92.3547 59.6457 92.3547C60.1591 92.3547 60.6248 92.498 61.0307 92.7845C61.4486 93.071 61.759 93.477 61.9739 93.9784V90.0983H62.535V98.8972H61.9977V97.4049C61.7828 97.9063 61.4724 98.3122 61.0546 98.5987C60.6367 98.8853 60.1711 99.0285 59.6457 99.0285C59.0727 99.0285 58.5832 98.8853 58.1534 98.6107C57.7355 98.3361 57.4012 97.9421 57.1744 97.4407C56.9475 96.9392 56.8281 96.3542 56.8281 95.6857V95.6618ZM57.4012 95.6618C57.4012 96.5572 57.6042 97.2616 58.022 97.763C58.4399 98.2644 58.9891 98.5271 59.6935 98.5271C60.1591 98.5271 60.5651 98.4077 60.9113 98.1689C61.2575 97.9302 61.5202 97.5959 61.7112 97.1661C61.9022 96.7363 61.9977 96.2229 61.9977 95.6379C61.9977 95.0529 61.9022 94.5395 61.6993 94.1217C61.4963 93.7038 61.2217 93.3815 60.8874 93.1546C60.5412 92.9278 60.1472 92.8203 59.6935 92.8203C58.9891 92.8203 58.428 93.071 58.022 93.5844C57.6161 94.0978 57.4012 94.7783 57.4012 95.6618Z" fill="black"/>
<path d="M66.9407 99.0156C66.3557 99.0156 65.8542 98.8724 65.4125 98.5978C64.9707 98.3112 64.6245 97.9172 64.3857 97.4039C64.135 96.8905 64.0156 96.2936 64.0156 95.613C64.0156 94.9803 64.135 94.4191 64.3857 93.9296C64.6365 93.4402 64.9707 93.0581 65.4125 92.7716C65.8423 92.485 66.3318 92.3418 66.881 92.3418C67.3347 92.3418 67.7287 92.4254 68.0869 92.5925C68.4331 92.7596 68.7435 92.9984 68.9823 93.2969C69.233 93.6073 69.424 93.9655 69.5434 94.3833C69.6747 94.8012 69.7225 95.2787 69.6986 95.8041H64.3141V95.3623H69.1136C69.0778 94.5505 68.851 93.9177 68.4689 93.464C68.0749 93.0104 67.5496 92.7835 66.8929 92.7835C66.4393 92.7835 66.0453 92.9029 65.699 93.1417C65.3528 93.3805 65.0782 93.7148 64.8872 94.1326C64.6962 94.5505 64.5887 95.04 64.5887 95.6011C64.5887 96.198 64.6842 96.7233 64.8752 97.1651C65.0663 97.6068 65.3289 97.9531 65.6871 98.1918C66.0453 98.4306 66.4631 98.55 66.9526 98.55C67.5496 98.55 68.0391 98.3829 68.4331 98.0605C68.8271 97.7382 69.0778 97.2845 69.1852 96.7114H69.7344C69.6151 97.4158 69.3046 97.9769 68.8032 98.3948C68.3018 98.8127 67.6809 99.0156 66.9646 99.0156H66.9407Z" fill="black"/>
<path d="M77.5657 99.0635C76.9568 99.0635 76.3957 98.9441 75.8823 98.7173C75.3689 98.4905 74.9153 98.1562 74.5332 97.7383C74.1512 97.3205 73.8527 96.831 73.6378 96.2698C73.4229 95.7087 73.3154 95.1118 73.3154 94.4671C73.3154 93.8224 73.4229 93.2254 73.6378 92.6643C73.8527 92.1151 74.1512 91.6256 74.5332 91.2077C74.9153 90.8018 75.3689 90.4675 75.8823 90.2407C76.3957 90.0139 76.9568 89.8945 77.5657 89.8945C78.2463 89.8945 78.8671 90.0377 79.4402 90.3123C80.0133 90.5989 80.4908 90.9928 80.8848 91.5062C81.2788 92.0196 81.5295 92.6165 81.6489 93.2971H81.0281C80.9326 92.7359 80.7177 92.2464 80.3953 91.8166C80.073 91.3868 79.667 91.0406 79.1775 90.7899C78.7 90.5392 78.1627 90.4198 77.5777 90.4198C77.0524 90.4198 76.5748 90.5153 76.1211 90.7302C75.6794 90.9331 75.2854 91.2197 74.963 91.5778C74.6407 91.936 74.378 92.3658 74.1989 92.8553C74.0198 93.3448 73.9243 93.8821 73.9243 94.4551C73.9243 95.0282 74.0198 95.5774 74.1989 96.0669C74.378 96.5564 74.6287 96.9981 74.963 97.3563C75.2973 97.7144 75.6794 98.0129 76.1211 98.2159C76.5629 98.4188 77.0524 98.5263 77.5777 98.5263C78.1746 98.5263 78.7119 98.4069 79.2014 98.1562C79.6909 97.9055 80.0968 97.5592 80.4192 97.1294C80.7415 96.6996 80.9445 96.1982 81.04 95.6371H81.6608C81.5415 96.3176 81.2907 96.9145 80.9087 97.4279C80.5147 97.9413 80.0371 98.3472 79.4641 98.6337C78.891 98.9203 78.2582 99.0635 77.5896 99.0635H77.5657Z" fill="black"/>
<path d="M83.7271 95.064V98.8844H83.166V90.0854H83.7271V93.7626C83.9182 93.3448 84.2047 93.0105 84.5868 92.7359C84.9688 92.4732 85.3986 92.3419 85.8762 92.3419C86.5567 92.3419 87.094 92.5449 87.488 92.9627C87.8819 93.3806 88.0849 93.9537 88.0849 94.7058V98.8844H87.5238V94.9207C87.5238 94.2521 87.3686 93.7387 87.0701 93.3686C86.7597 93.0105 86.3299 92.8195 85.7568 92.8195C85.3867 92.8195 85.0405 92.915 84.742 93.1179C84.4435 93.309 84.1928 93.5836 84.0137 93.9178C83.8346 94.2521 83.7391 94.6342 83.7391 95.064H83.7271Z" fill="black"/>
<path d="M93.9709 98.8844V97.5831C93.8038 98.0129 93.5173 98.3591 93.1233 98.6217C92.7293 98.8844 92.2637 99.0038 91.7503 99.0038C91.0936 99.0038 90.5564 98.8366 90.1624 98.4904C89.7684 98.1561 89.5654 97.6905 89.5654 97.1294C89.5654 96.4966 89.8161 96.031 90.3176 95.7087C90.819 95.3863 91.5593 95.2311 92.5383 95.2311C92.7412 95.2311 92.9442 95.2311 93.1352 95.243C93.3262 95.243 93.6008 95.2669 93.959 95.3027V94.7058C93.959 94.1088 93.8038 93.6432 93.5053 93.3089C93.2068 92.9747 92.777 92.7956 92.2398 92.7956C91.6548 92.7956 91.2011 92.9627 90.8668 93.3089C90.5325 93.6552 90.3534 94.1088 90.3415 94.6939H89.8161C89.8161 94.2163 89.9236 93.8104 90.1266 93.4522C90.3295 93.106 90.6041 92.8314 90.9623 92.6284C91.3205 92.4374 91.7383 92.33 92.2278 92.33C92.9442 92.33 93.5053 92.5329 93.9113 92.9388C94.3052 93.3448 94.5082 93.9059 94.5082 94.6342V98.8725H93.9829L93.9709 98.8844ZM90.1266 97.1175C90.1266 97.5473 90.2818 97.8935 90.5802 98.1561C90.8787 98.4188 91.2846 98.5621 91.7861 98.5621C92.4427 98.5621 92.9561 98.3591 93.3501 97.9412C93.7441 97.5353 93.9351 96.9861 93.9351 96.3056V95.7087C93.6247 95.6848 93.3621 95.6609 93.1352 95.649C92.9203 95.637 92.7173 95.6251 92.5383 95.6251C91.7264 95.6251 91.1175 95.7445 90.7116 95.9833C90.3057 96.222 90.1146 96.5921 90.1146 97.1055L90.1266 97.1175Z" fill="black"/>
<path d="M96.9908 95.3265V98.8843H96.4297V92.4612H96.9669V94.0013C97.1818 93.4999 97.5042 93.1059 97.9459 92.7955C98.3877 92.485 98.8653 92.3418 99.4025 92.3418V92.9387C98.9608 92.9387 98.5548 93.0342 98.1967 93.2372C97.8385 93.4402 97.54 93.7267 97.3251 94.0849C97.1102 94.443 97.0028 94.8609 97.0028 95.3265H96.9908Z" fill="black"/>
<path d="M103.94 98.3595V98.8609C103.797 98.9206 103.653 98.9564 103.534 98.9803C103.403 99.0042 103.283 99.0161 103.152 99.0161C102.83 99.0161 102.531 98.9564 102.257 98.837C101.982 98.7176 101.767 98.5266 101.612 98.252C101.445 97.9774 101.361 97.6193 101.361 97.1775V92.9392H99.7852V92.4736H101.361V90.5634H101.934V92.4736H104V92.9392H101.934V97.0701C101.934 97.6073 102.054 97.9774 102.304 98.1804C102.555 98.3834 102.853 98.4908 103.224 98.4908C103.355 98.4908 103.474 98.4908 103.582 98.4669C103.689 98.4431 103.809 98.4192 103.94 98.3714V98.3595Z" fill="black"/>
<path d="M107.569 99.0156C106.984 99.0156 106.482 98.8724 106.04 98.5978C105.599 98.3112 105.252 97.9172 105.014 97.4039C104.763 96.8905 104.644 96.2936 104.644 95.613C104.644 94.9803 104.763 94.4191 105.014 93.9296C105.264 93.4402 105.599 93.0581 106.04 92.7716C106.47 92.485 106.96 92.3418 107.509 92.3418C107.963 92.3418 108.357 92.4254 108.715 92.5925C109.061 92.7596 109.371 92.9984 109.61 93.2969C109.861 93.6073 110.052 93.9655 110.171 94.3833C110.303 94.8012 110.35 95.2787 110.327 95.8041H104.942V95.3623H109.742C109.706 94.5505 109.479 93.9177 109.097 93.464C108.703 93.0104 108.178 92.7835 107.521 92.7835C107.067 92.7835 106.673 92.9029 106.327 93.1417C105.981 93.3805 105.706 93.7148 105.515 94.1326C105.324 94.5505 105.217 95.04 105.217 95.6011C105.217 96.198 105.312 96.7233 105.503 97.1651C105.694 97.6068 105.957 97.9531 106.315 98.1918C106.673 98.4306 107.091 98.55 107.581 98.55C108.178 98.55 108.667 98.3829 109.061 98.0605C109.455 97.7382 109.706 97.2845 109.813 96.7114H110.362C110.243 97.4158 109.933 97.9769 109.431 98.3948C108.93 98.8127 108.309 99.0156 107.593 99.0156H107.569Z" fill="black"/>
</svg>
