<svg width="9" height="9" viewBox="0 0 9 9" fill="none" xmlns="http://www.w3.org/2000/svg">
<path d="M6.75 1C6.75 0.447715 7.25368 0 7.875 0C8.49632 0 9 0.447715 9 1V8C9 8.55228 8.49632 9 7.875 9C7.25368 9 6.75 8.55228 6.75 8V1Z" fill="#136A86"/>
<path d="M3.375 4C3.375 3.44772 3.87868 3 4.5 3C5.12132 3 5.625 3.44772 5.625 4V8C5.625 8.55228 5.12132 9 4.5 9C3.87868 9 3.375 8.55228 3.375 8V4Z" fill="#136A86"/>
<path d="M0 7C0 6.44772 0.50368 6 1.125 6C1.74632 6 2.25 6.44772 2.25 7V8C2.25 8.55228 1.74632 9 1.125 9C0.50368 9 0 8.55228 0 8V7Z" fill="#136A86"/>
</svg>
