<svg width="40" height="41" viewBox="0 0 40 41" fill="none" xmlns="http://www.w3.org/2000/svg">
<path d="M32.752 3.97775C34.3604 4.26118 35.5916 5.5404 35.7512 7.23334L35.7549 33.6584C35.6165 35.436 34.2663 36.8437 32.5362 36.9778H6.97084C5.29692 36.8484 4.03802 35.5606 3.75488 33.882V7.07165C3.98361 5.54515 5.23605 4.15466 6.7541 3.97775H32.752ZM33.8771 26.0193V7.23239C33.8771 7.2048 33.7121 6.79298 33.6789 6.72831C33.4197 6.22708 32.8958 5.93605 32.3489 5.90847L7.0354 5.91037C6.52907 5.99787 6.07531 6.24991 5.82815 6.72736C5.79494 6.79203 5.62986 7.20385 5.62986 7.23143V26.0183H33.8781L33.8771 26.0193ZM33.8771 27.9529H5.62986V33.7212C5.62986 33.7488 5.79494 34.1606 5.82815 34.2253C6.07439 34.7027 6.52907 34.9548 7.0354 35.0423L32.3489 35.0442C32.8958 35.0166 33.4197 34.7256 33.6789 34.2243C33.7121 34.1597 33.8771 33.7478 33.8771 33.7203V27.9519V27.9529Z" fill="#5CB5BD"/>
<path d="M29.809 14.3362L27.2429 15.0911L27.2104 20.1817C27.1022 20.5755 26.9003 20.8126 26.503 20.946L13.171 20.9778C12.702 20.8994 12.4149 20.6278 12.301 20.1817L12.2675 15.093L8.42552 13.9694C7.54207 13.6689 7.52293 12.4819 8.41882 12.1684L19.4929 8.99175L19.9667 8.97775C23.49 10.1806 27.4123 10.8684 30.8963 12.1058C31.3787 12.2775 31.6573 12.4418 31.7549 12.9756L31.7386 18.9704C31.5501 19.6629 30.7126 19.9568 30.1344 19.4884C30.0627 19.4305 29.8081 19.0274 29.8081 18.9844V14.3362H29.809ZM27.2152 13.0082L19.7255 10.9179C17.3298 11.6635 14.8202 12.2178 12.4398 12.9914C12.3546 13.0194 12.2694 12.9662 12.2972 13.1025L19.7868 15.2246L27.1242 13.1408L27.2152 13.0082ZM25.2693 15.6641L19.7236 17.1871L14.243 15.6641V19.0787H25.2693V15.6641Z" fill="#5CB5BD"/>
<path d="M22.7789 31.1187H31.0151C31.0435 31.1187 31.4512 31.3298 31.4975 31.3746C31.9903 31.8475 31.7397 32.6279 31.0491 32.8087L22.778 32.8357C22.9662 34.3584 20.6676 34.3584 20.8558 32.8357L7.61757 32.8374C6.46921 32.6592 6.46543 31.2986 7.61757 31.1178L20.8558 31.1195C20.6676 29.5976 22.9653 29.5967 22.7789 31.1195V31.1187Z" fill="#5CB5BD"/>
</svg>
