<svg width="41" height="41" viewBox="0 0 41 41" fill="none" xmlns="http://www.w3.org/2000/svg">
<path d="M39.4219 36.5532C39.2211 36.1114 38.6914 35.8378 38.0966 35.8302V32.2406C38.0966 31.7933 37.759 30.7382 37.7438 30.6927C37.3151 29.3586 36.4359 28.1559 35.2972 27.3288C35.4221 27.2245 35.5632 27.1106 35.6695 27.0237C35.9387 26.8056 36.1081 26.6677 36.1906 26.5819C36.9677 25.7678 38.0966 23.7553 38.0966 22.4571V18.8349C38.4146 18.8403 38.7794 18.811 39.1126 18.5168C39.4513 18.2183 39.5804 17.77 39.448 17.3488C39.3199 16.9374 38.9693 16.6498 38.5351 16.5977C38.3256 16.5727 37.835 16.5836 37.0524 16.6042C36.616 16.615 36.0071 16.6313 35.6836 16.6248C34.2194 10.0566 28.8931 4.73119 22.35 3.32875C19.7861 2.7795 17.2179 2.78927 14.716 3.35806C12.3193 3.90297 10.1006 4.93201 8.12076 6.41478C4.02426 9.48669 1.45608 14.2107 1.07617 19.3776V21.6115V21.6343C1.31497 25.6224 2.98223 29.4704 5.76858 32.4707C8.55819 35.4731 12.2759 37.415 16.2367 37.9393C18.5899 38.2509 21.0138 38.0718 23.634 37.3923C23.7686 37.7646 24.116 38.0283 24.6055 38.0978L24.6327 38.1022L38.7794 38.0446L38.8792 37.9708C39.702 37.3597 39.5012 36.7323 39.4198 36.5543L39.4219 36.5532ZM24.9833 33.0558C24.9919 33.4726 25.0061 34.2085 24.9691 34.4886C24.6913 34.621 23.9271 34.9141 23.6547 35.0085C19.6537 36.3979 15.3716 36.0908 11.5975 34.1434C7.8342 32.2026 5.11297 28.9092 3.93308 24.8701C2.38523 19.5708 3.70514 14.0142 7.46514 10.0055C10.4143 6.86091 14.4131 5.1567 18.6008 5.1567C19.7394 5.1567 20.8922 5.28262 22.0417 5.53988C27.4993 6.76213 32.0843 11.2712 33.3467 16.5955H30.8653C29.6192 12.5966 26.288 9.28479 22.3044 8.11573C17.6499 6.74911 12.8436 7.98655 9.44827 11.4264C6.04537 14.8739 4.86657 19.7054 6.29503 24.3524C7.50422 28.2851 10.4382 31.3244 14.3437 32.6932C17.9517 33.9567 21.804 33.5909 25.056 31.7032C25.0223 31.8715 24.9952 32.0408 24.9822 32.2102C24.9691 32.373 24.9757 32.6737 24.9822 33.0547L24.9833 33.0558ZM33.6951 25.7526C33.5779 25.8286 33.3478 25.9296 33.1252 26.0283C32.4555 26.3236 32.0387 26.5266 31.9041 26.8577C31.7738 27.1779 31.7641 27.4731 31.8748 27.7347C32.0767 28.2112 32.6042 28.4229 33.0699 28.6096C33.2511 28.6823 33.4216 28.7507 33.5453 28.8235C34.6177 29.4552 35.8649 31.1182 35.8649 32.3155V35.8704H27.2095V32.1678C27.2095 31.1887 28.4133 29.5084 29.3468 28.9201C29.4694 28.843 29.6768 28.7518 29.8971 28.6563C30.4398 28.4197 30.9511 28.1961 31.1269 27.8281C31.2724 27.5241 31.2941 27.2376 31.1942 26.9738C31.0043 26.4766 30.4474 26.2454 29.9568 26.0403C29.782 25.9676 29.6171 25.8992 29.5009 25.8308C28.4697 25.224 27.2095 23.5828 27.2095 22.532V18.8294H35.8649V22.3117C35.8649 23.4579 34.6981 25.1035 33.694 25.7537L33.6951 25.7526ZM8.64829 24.2036C7.32404 20.614 7.54872 15.1898 12.5353 11.713C14.3404 10.4549 16.4266 9.80908 18.5541 9.80908C19.696 9.80908 20.8488 9.99578 21.9744 10.3735C25.0234 11.3961 27.3767 13.6495 28.5001 16.5988H24.4394C24.0997 16.5988 23.6981 17.0927 23.6319 17.3022C23.4647 17.8384 23.6264 18.1857 23.7914 18.3822C24.0986 18.748 24.6012 18.8381 24.9789 18.8479V22.6058C24.9789 22.9651 25.3089 23.9583 25.3469 24.0712C25.7235 25.1936 26.3564 26.0012 27.1466 26.888C25.3729 29.287 22.6083 30.8772 19.6938 31.1638C14.7225 31.6533 10.3861 28.9201 8.6472 24.2047L8.64829 24.2036Z" fill="#5CB5BD"/>
<path d="M22.468 22.1119L19.7229 19.9062L19.6936 16.005L19.6697 15.9421C19.4711 15.4091 18.9729 15.0802 18.4562 15.1442C18.0101 15.1985 17.5574 15.6349 17.4869 16.0777L17.4814 16.1092L17.5129 20.8387L17.8027 21.325L17.8765 21.3727C18.3509 21.6843 18.8263 22.0783 19.2855 22.4582C19.7707 22.8598 20.2721 23.2756 20.7899 23.611C21.0689 23.7912 21.3565 23.8813 21.6246 23.8813C21.8775 23.8813 22.1109 23.8009 22.2998 23.6392C22.6775 23.3157 22.7567 22.7632 22.5049 22.1966L22.468 22.1119Z" fill="#5CB5BD"/>
<path d="M18.0245 12.8929C18.2329 13.0004 18.4391 13.0547 18.6334 13.0547C18.8918 13.0547 19.1284 12.9602 19.3216 12.7735C19.7514 12.3567 19.8676 11.5274 19.5799 10.925C19.3618 10.468 18.9417 10.2303 18.4576 10.29C17.9539 10.3518 17.5881 10.7491 17.4785 11.3548C17.3754 11.9269 17.5306 12.6389 18.0245 12.894V12.8929Z" fill="#5CB5BD"/>
<path d="M18.2669 28.0246C17.6188 28.1722 17.3562 28.9733 17.4766 29.6615C17.5917 30.3214 18.0302 30.7372 18.5882 30.7372C18.6348 30.7372 18.6815 30.7339 18.7303 30.7285C19.133 30.6797 19.4619 30.3985 19.6313 29.9589C19.844 29.4064 19.7572 28.7486 19.4207 28.3578C19.1428 28.0365 18.7325 27.9182 18.2669 28.0235V28.0246Z" fill="#5CB5BD"/>
<path d="M9.3131 19.4167C8.68571 19.5296 8.33511 20.0636 8.4404 20.7453C8.49576 21.1057 8.75844 21.3977 9.16005 21.5464C9.35326 21.6181 9.56384 21.6517 9.77225 21.6517C10.163 21.6517 10.5483 21.5312 10.8078 21.3065C11.1063 21.0482 11.2246 20.6845 11.141 20.2797C10.9956 19.5806 10.2781 19.2408 9.3131 19.4156V19.4167Z" fill="#5CB5BD"/>
</svg>
