<svg width="34" height="35" viewBox="0 0 34 35" fill="none" xmlns="http://www.w3.org/2000/svg">
<path d="M16.2468 0L31.5902 5.68336C31.8182 5.85485 31.9621 6.16555 31.967 6.45708L31.9611 23.4013C33.0543 23.833 33.8559 24.8569 33.9567 26.0755C34.0937 27.7329 33.853 29.59 33.9499 31.2686C33.8422 31.7266 33.528 32.0695 33.0602 32.1291C31.78 32.2905 30.1935 32.004 28.8791 32.1291C28.4083 32.0423 28.055 31.7013 27.9836 31.206C28.1196 29.5224 27.7986 27.5372 28.0022 25.8899C28.1333 24.8256 28.9633 23.7301 29.9753 23.4456V7.92887L27.916 8.72579L27.9209 20.2691C27.9014 20.4355 27.7624 20.7654 27.6557 20.8844C27.6077 20.9379 27.1859 21.1901 27.1566 21.1901H13.5944V23.5142C14.7004 23.2066 15.684 23.4416 16.6001 24.1185C17.8108 23.1107 19.3522 23.1733 20.5796 24.1185C22.5106 22.4732 25.3146 23.7402 25.5309 26.2833C25.6581 27.7803 25.6601 30.6643 25.5309 32.1593C25.3978 33.7027 24.2126 34.8911 22.7161 35H9.24793C8.43853 34.9344 7.85325 34.5753 7.25917 34.0427C5.95747 32.8755 3.81701 30.7067 2.71986 29.357C0.295574 26.3731 3.67803 22.6114 6.69151 24.7853C7.0321 25.0314 7.30223 25.3683 7.62619 25.6336V21.1901H4.80747C4.56867 21.1901 4.00492 20.5818 4.04309 20.2691L4.04799 8.72579L0.58136 7.43155C0.270127 7.30444 0.154638 7.04519 0 6.76677V6.22003C0.205531 5.84275 0.349403 5.61376 0.778083 5.48464L15.7163 0H16.2468ZM27.92 6.56099L27.6723 6.37235L16.0168 2.12546C12.2183 3.57505 8.32206 4.79263 4.54126 6.28761C4.38369 6.35016 4.13509 6.40665 4.04505 6.56099L16.0168 10.8613L27.92 6.56099ZM25.9302 9.43293L16.0158 12.9929L15.2181 12.783L6.03381 9.43192V19.1382H7.69176C8.23495 15.6883 12.9455 15.7054 13.5279 19.1382H25.9302V9.43192V9.43293ZM13.8822 25.7244C13.3527 26.2692 13.6874 27.8388 13.5964 28.6085C13.4652 29.7151 12.0187 29.8563 11.6566 28.8264L11.5988 19.5891C11.3982 18.3474 9.94478 18.2223 9.61886 19.4509L9.55133 28.5419C9.29784 29.1401 8.6881 29.362 8.12044 29.0534C7.3727 28.6458 6.32449 27.0822 5.5699 26.4871C4.57748 25.7033 3.47152 26.6797 4.04211 27.7884L8.88776 32.7747L9.44563 32.9512H22.583C23.1115 32.8988 23.4511 32.5689 23.5431 32.0272C23.4247 30.2618 23.6948 28.2948 23.5441 26.5546C23.4149 25.0708 21.6894 25.1051 21.5514 26.3519C21.4457 27.3042 22.0085 29.4911 20.5903 29.5365C19.0645 29.586 19.6987 27.2164 19.5578 26.2873C19.4325 25.4611 18.3872 25.1293 17.8362 25.7547C17.0748 26.6182 18.3275 29.4811 16.6108 29.5365C15.1134 29.585 15.6938 27.2779 15.5842 26.3499C15.4834 25.4965 14.4743 25.1141 13.8802 25.7254L13.8822 25.7244ZM31.965 30.0762V26.0775C31.965 26.0311 31.7037 25.5953 31.6313 25.5328C31.2486 25.2049 30.6398 25.211 30.2728 25.563C30.2209 25.6125 29.9762 26.0472 29.9762 26.0775V30.0762H31.966H31.965Z" fill="#5CB5BD"/>
</svg>
