<svg width="61" height="61" viewBox="0 0 61 61" fill="none" xmlns="http://www.w3.org/2000/svg">
<circle cx="30.5" cy="30.5" r="30.5" fill="#E4F4F9"/>
<path d="M18.6733 21.0831V28.1375M18.6733 28.1375H25.7698M18.6733 28.1375L24.1612 23.0113C25.7945 21.3905 27.9134 20.3412 30.1987 20.0216C32.484 19.702 34.812 20.1293 36.8317 21.2392C38.8515 22.3492 40.4536 24.0815 41.3968 26.1754C42.34 28.2692 42.5731 30.611 42.061 32.848C41.549 35.0849 40.3194 37.0959 38.5577 38.5778C36.7959 40.0597 34.5974 40.9323 32.2934 41.0641C29.9894 41.196 27.7047 40.5799 25.7835 39.3087C23.8624 38.0375 22.4089 36.18 21.642 34.0162" stroke="#136A86" stroke-width="3" stroke-linecap="round" stroke-linejoin="round"/>
</svg>
