<svg width="154" height="39" viewBox="0 0 154 39" fill="none" xmlns="http://www.w3.org/2000/svg">
<path d="M57.8466 22.9485H54.4795V1.42268H67.8393V4.29898H57.8466V11.3196H66.3652V14.1959H57.8466V22.9485Z" fill="white"/>
<path d="M81.044 23.397C79.4458 23.397 77.9717 23.1186 76.6218 22.5465C75.2718 21.9743 74.0771 21.1856 73.0685 20.165C72.0599 19.1444 71.2686 17.9537 70.71 16.5774C70.1514 15.2011 69.8721 13.732 69.8721 12.1547C69.8721 10.5774 70.1514 9.10829 70.71 7.74746C71.2686 6.38663 72.0599 5.21137 73.0685 4.19075C74.0771 3.18559 75.2563 2.39693 76.6218 1.82476C77.9872 1.25259 79.4613 0.974243 81.044 0.974243C82.6267 0.974243 84.1163 1.25259 85.4662 1.82476C86.8162 2.39693 88.0109 3.18559 89.0195 4.19075C90.0281 5.19591 90.8194 6.38663 91.378 7.74746C91.9366 9.10829 92.2159 10.5774 92.2159 12.1547C92.2159 13.732 91.9366 15.2011 91.378 16.5774C90.8194 17.9537 90.0281 19.1444 89.0195 20.165C88.0109 21.1856 86.8317 21.9743 85.4662 22.5465C84.1008 23.1186 82.6267 23.397 81.044 23.397ZM81.044 20.4279C82.2077 20.4279 83.2629 20.2114 84.1939 19.7939C85.1249 19.3764 85.9472 18.7887 86.63 18.031C87.3127 17.2733 87.8403 16.3918 88.1971 15.3712C88.554 14.3506 88.7402 13.2836 88.7402 12.1547C88.7402 11.0258 88.554 9.94334 88.1971 8.95365C87.8403 7.94849 87.3127 7.08251 86.63 6.32478C85.9472 5.58251 85.1404 4.99487 84.1939 4.57735C83.2473 4.15982 82.2077 3.94332 81.044 3.94332C79.8803 3.94332 78.8251 4.15982 77.8941 4.57735C76.9476 4.99487 76.1408 5.58251 75.458 6.32478C74.7753 7.08251 74.2477 7.94849 73.8909 8.95365C73.534 9.95881 73.3478 11.0258 73.3478 12.1547C73.3478 13.2836 73.534 14.366 73.8909 15.3712C74.2477 16.3764 74.7753 17.2578 75.458 18.031C76.1408 18.7887 76.9476 19.3764 77.8941 19.7939C78.8251 20.2114 79.8803 20.4279 81.044 20.4279Z" fill="white"/>
<path d="M99.0741 22.9485H95.707V1.42268H103.915C106.444 1.42268 108.431 2.01031 109.858 3.17011C111.286 4.32991 111.999 6.00002 111.999 8.13404C111.999 9.68044 111.534 10.9949 110.587 12.1237C109.641 13.2372 108.338 13.9949 106.662 14.366L112.636 22.9331H108.586L103.108 14.8454H99.0586V22.9331L99.0741 22.9485ZM99.0741 4.17527V12.0928H103.698C105.25 12.0928 106.46 11.7526 107.313 11.0877C108.167 10.4227 108.601 9.43302 108.601 8.13404C108.601 6.83507 108.167 5.84538 107.313 5.18043C106.46 4.51548 105.25 4.17527 103.698 4.17527H99.0741Z" fill="white"/>
<path d="M125.607 23.397C124.009 23.397 122.535 23.1186 121.185 22.5619C119.835 22.0052 118.64 21.2166 117.616 20.2269C116.592 19.2217 115.801 18.0465 115.226 16.6702C114.652 15.2939 114.373 13.7939 114.373 12.1547C114.373 10.5155 114.652 9.07736 115.195 7.732C115.739 6.38663 116.514 5.19591 117.507 4.17528C118.5 3.15466 119.664 2.366 121.014 1.8093C122.364 1.25259 123.838 0.974243 125.421 0.974243C127.314 0.974243 129.005 1.31445 130.464 2.01033C131.922 2.70621 133.148 3.63405 134.126 4.80931C135.103 5.98457 135.817 7.32993 136.267 8.82994H132.341C132.077 7.91756 131.627 7.08251 131.007 6.34024C130.386 5.59797 129.595 5.01034 128.648 4.59281C127.702 4.15982 126.585 3.94332 125.328 3.94332C123.885 3.94332 122.581 4.28353 121.449 4.96395C120.316 5.64436 119.431 6.60313 118.795 7.82478C118.159 9.04643 117.849 10.5155 117.849 12.2165C117.849 13.7939 118.159 15.2166 118.795 16.4691C119.431 17.7217 120.331 18.7269 121.511 19.4691C122.69 20.2114 124.086 20.5826 125.716 20.5826C127.066 20.5826 128.245 20.3351 129.253 19.8248C130.262 19.3145 131.084 18.5877 131.721 17.6599C132.357 16.732 132.776 15.6495 132.977 14.4434H125.374V11.799H136.515C136.562 13.5155 136.313 15.0928 135.817 16.5001C135.305 17.9228 134.576 19.1444 133.614 20.1805C132.652 21.2166 131.488 22.0207 130.138 22.5619C128.772 23.1186 127.267 23.3815 125.592 23.3815H125.607V23.397Z" fill="white"/>
<path d="M154.002 20.0722V22.9485H140.068V1.42268H153.785V4.29898H143.435V10.4227H152.87V13.299H143.435V20.0722H154.002Z" fill="white"/>
<path d="M57.3495 35.2269C56.5426 35.2269 55.8599 34.763 55.5496 33.9588V35.1341H55.2393V28.531H55.5496V31.5465C55.8444 30.7114 56.5271 30.2475 57.334 30.2475C58.6219 30.2475 59.4443 31.2372 59.4443 32.7372C59.4443 34.2372 58.6219 35.2424 57.334 35.2424L57.3495 35.2269ZM57.334 30.4949C56.2789 30.4949 55.5341 31.33 55.5341 32.7063C55.5341 34.0826 56.2478 34.964 57.334 34.964C58.4202 34.964 59.1494 34.1135 59.1494 32.7217C59.1494 31.33 58.4512 30.4795 57.334 30.4795V30.4949Z" fill="white"/>
<path d="M61.3213 36.9125H60.9955L61.7092 35.0723L59.7852 30.3248H60.111L61.8644 34.6702L63.5246 30.3248H63.8505L61.3058 36.9125H61.3213Z" fill="white"/>
<path d="M69.6077 35.2733C69.1266 35.2733 68.6922 35.1805 68.2887 35.0104C67.8853 34.8403 67.5284 34.5929 67.2336 34.2836C66.9388 33.9743 66.7061 33.6032 66.5354 33.1857C66.3647 32.7681 66.2871 32.3197 66.2871 31.8248C66.2871 31.33 66.3647 30.8815 66.5199 30.464C66.675 30.0465 66.9078 29.6908 67.2026 29.3661C67.4974 29.0413 67.8388 28.8094 68.2422 28.6238C68.6456 28.4537 69.0801 28.3609 69.5611 28.3609C70.1352 28.3609 70.6473 28.4691 71.0817 28.6856C71.5162 28.9021 71.8731 29.196 72.1679 29.5516C72.4627 29.9073 72.6489 30.3094 72.7575 30.7423H72.261C72.1679 30.3712 71.9972 30.031 71.7645 29.7372C71.5317 29.4279 71.2214 29.196 70.849 29.0104C70.4766 28.8248 70.0421 28.7475 69.5456 28.7475C68.987 28.7475 68.506 28.8867 68.087 29.1496C67.6681 29.4125 67.3422 29.7836 67.094 30.232C66.8457 30.6805 66.7371 31.2063 66.7371 31.7939C66.7371 32.3815 66.8612 32.8918 67.1095 33.3558C67.3578 33.8042 67.6836 34.1754 68.1181 34.4382C68.5525 34.7011 69.0491 34.8403 69.6077 34.8403C70.1352 34.8403 70.6007 34.7321 71.0041 34.5156C71.4076 34.2991 71.7179 34.0052 71.9507 33.6186C72.1834 33.232 72.3386 32.7681 72.3851 32.2578H69.5456V31.8867H72.8351C72.8351 32.397 72.742 32.8609 72.5713 33.2784C72.4162 33.696 72.1834 34.0516 71.9041 34.3455C71.6248 34.6393 71.2834 34.8712 70.8955 35.0104C70.5076 35.165 70.0731 35.2424 69.5921 35.2424L69.6077 35.2733Z" fill="white"/>
<path d="M74.418 32.4588V35.1341H73.999V30.3094H74.4025V31.4691C74.5576 31.098 74.8059 30.7887 75.1317 30.5568C75.4576 30.3248 75.83 30.2166 76.2334 30.2166V30.665C75.9076 30.665 75.5972 30.7269 75.3179 30.8815C75.0386 31.0362 74.8214 31.2527 74.6662 31.5155C74.4956 31.7939 74.418 32.1032 74.418 32.4434V32.4588Z" fill="white"/>
<path d="M80.0657 35.1341V34.1599C79.9415 34.4846 79.7243 34.7475 79.4295 34.9331C79.1347 35.1186 78.7778 35.2269 78.3899 35.2269C77.8933 35.2269 77.4899 35.1032 77.1951 34.8403C76.9003 34.5929 76.7451 34.2372 76.7451 33.8197C76.7451 33.3403 76.9313 32.9846 77.3037 32.7527C77.6761 32.5207 78.2347 32.397 78.9795 32.397C79.1347 32.397 79.2898 32.397 79.4295 32.397C79.5691 32.397 79.7864 32.4124 80.0501 32.4434V31.9949C80.0501 31.5465 79.9415 31.1908 79.7088 30.9434C79.476 30.6805 79.1657 30.5568 78.7623 30.5568C78.3278 30.5568 77.9864 30.6805 77.7227 30.9434C77.4589 31.2063 77.3347 31.5465 77.3347 31.9795H76.9313C76.9313 31.6238 77.0089 31.3145 77.1641 31.0516C77.3192 30.7887 77.5209 30.5877 77.8002 30.4331C78.064 30.2784 78.3899 30.2166 78.7468 30.2166C79.2898 30.2166 79.7088 30.3712 80.0191 30.665C80.3294 30.9588 80.4691 31.3918 80.4691 31.9331V35.1186H80.0657V35.1341ZM77.1796 33.8042C77.1796 34.129 77.2882 34.3764 77.5209 34.5929C77.7537 34.7939 78.0485 34.9021 78.4364 34.9021C78.933 34.9021 79.3209 34.7475 79.6157 34.4382C79.9105 34.129 80.0657 33.7269 80.0657 33.2166V32.7681C79.8329 32.7527 79.6312 32.7372 79.4605 32.7217C79.2898 32.7217 79.1502 32.7217 79.0105 32.7217C78.3899 32.7217 77.9399 32.8145 77.6296 33.0001C77.3192 33.1856 77.1796 33.464 77.1796 33.8351V33.8042Z" fill="white"/>
<path d="M82.3467 32.2578V35.1341H81.9277V30.3093H82.3312V31.299C82.4708 30.9743 82.7036 30.7269 82.9829 30.5258C83.2777 30.3248 83.6035 30.232 83.9604 30.232C84.4725 30.232 84.8759 30.3867 85.1707 30.6959C85.4655 31.0052 85.6207 31.4382 85.6207 32.0104V35.1496H85.2017V32.165C85.2017 31.6547 85.0931 31.2681 84.8604 31.0052C84.6276 30.7269 84.3018 30.6032 83.8673 30.6032C83.588 30.6032 83.3242 30.6805 83.107 30.8197C82.8742 30.9743 82.7036 31.1753 82.5639 31.4228C82.4243 31.6856 82.3622 31.964 82.3622 32.2887L82.3467 32.2578Z" fill="white"/>
<path d="M86.6924 32.7217C86.6924 32.2269 86.7855 31.7939 86.9562 31.4073C87.1268 31.0362 87.3751 30.7424 87.701 30.5413C88.0268 30.3403 88.3992 30.232 88.8182 30.232C89.2061 30.232 89.5629 30.3403 89.8733 30.5568C90.1836 30.7733 90.4164 31.0671 90.587 31.4537V28.531H91.006V35.1341H90.6026V34.0052C90.4474 34.3918 90.1991 34.6857 89.8888 34.9022C89.5785 35.1187 89.2216 35.2269 88.8337 35.2269C88.3992 35.2269 88.0268 35.1187 87.7165 34.9176C87.4061 34.7166 87.1579 34.4228 86.9717 34.0362C86.801 33.665 86.7079 33.2166 86.7079 32.7217H86.6924ZM87.1269 32.7217C87.1269 33.4022 87.282 33.9279 87.5923 34.2991C87.9027 34.6857 88.3216 34.8712 88.8492 34.8712C89.2061 34.8712 89.5009 34.7784 89.7647 34.6083C90.0284 34.4228 90.2302 34.1754 90.3698 33.8506C90.5095 33.5259 90.587 33.1393 90.587 32.7063C90.587 32.2733 90.5095 31.8867 90.3543 31.5774C90.1991 31.2681 89.9974 31.0207 89.7336 30.8506C89.4699 30.6805 89.175 30.6032 88.8337 30.6032C88.3061 30.6032 87.8872 30.7887 87.5768 31.1753C87.2665 31.5619 87.1113 32.0723 87.1113 32.7372L87.1269 32.7217Z" fill="white"/>
<path d="M94.3254 35.2424C93.891 35.2424 93.503 35.1341 93.1772 34.9176C92.8513 34.7011 92.5876 34.4073 92.4014 34.0207C92.2152 33.6341 92.1221 33.1856 92.1221 32.6753C92.1221 32.196 92.2152 31.7784 92.4014 31.4228C92.5876 31.0516 92.8513 30.7578 93.1772 30.5413C93.503 30.3248 93.8754 30.2166 94.2789 30.2166C94.6202 30.2166 94.9151 30.2784 95.1788 30.4021C95.4426 30.5258 95.6754 30.7114 95.8616 30.9434C96.0478 31.1753 96.1874 31.4537 96.2805 31.763C96.3736 32.0722 96.4202 32.4279 96.3891 32.83H92.3238V32.5052H95.9391C95.9081 31.9021 95.7529 31.4228 95.4426 31.0825C95.1478 30.7423 94.7444 30.5722 94.2478 30.5722C93.9065 30.5722 93.6117 30.665 93.3479 30.8506C93.0841 31.0362 92.8824 31.2836 92.7272 31.5929C92.5876 31.9021 92.51 32.2733 92.51 32.6908C92.51 33.1393 92.5876 33.5259 92.7272 33.8661C92.8669 34.2063 93.0686 34.4537 93.3479 34.6393C93.6117 34.8248 93.9375 34.9021 94.3099 34.9021C94.7599 34.9021 95.1323 34.7784 95.4271 34.531C95.7219 34.2836 95.9081 33.9434 95.9857 33.5259H96.4046C96.3115 34.0516 96.0788 34.4692 95.6909 34.7784C95.303 35.0877 94.853 35.2424 94.2944 35.2424H94.3254Z" fill="white"/>
<path d="M102.317 35.2733C101.867 35.2733 101.432 35.1805 101.044 35.0104C100.656 34.8403 100.315 34.5929 100.02 34.2836C99.7253 33.9743 99.508 33.6032 99.3529 33.1856C99.1977 32.7681 99.1201 32.3197 99.1201 31.8248C99.1201 31.33 99.1977 30.8815 99.3529 30.464C99.508 30.0465 99.7408 29.6908 100.02 29.366C100.299 29.0413 100.656 28.8093 101.044 28.6392C101.432 28.4691 101.851 28.3764 102.317 28.3764C102.829 28.3764 103.294 28.4846 103.729 28.7011C104.163 28.9176 104.52 29.2114 104.815 29.598C105.11 29.9846 105.296 30.4331 105.389 30.9434H104.923C104.846 30.5258 104.691 30.1547 104.442 29.83C104.194 29.5052 103.899 29.2423 103.527 29.0568C103.154 28.8712 102.767 28.7784 102.317 28.7784C101.929 28.7784 101.556 28.8557 101.215 29.0104C100.873 29.165 100.594 29.3815 100.346 29.6444C100.098 29.9227 99.9115 30.232 99.7718 30.6032C99.6322 30.9743 99.5701 31.3764 99.5701 31.8093C99.5701 32.2423 99.6322 32.6444 99.7718 33.0155C99.9115 33.3867 100.098 33.7114 100.346 33.9898C100.594 34.2681 100.889 34.4846 101.215 34.6393C101.556 34.7939 101.913 34.8712 102.317 34.8712C102.767 34.8712 103.17 34.7784 103.542 34.5929C103.915 34.4073 104.21 34.1444 104.458 33.8197C104.706 33.4949 104.861 33.1238 104.923 32.7063H105.389C105.296 33.2166 105.11 33.665 104.815 34.0516C104.52 34.4382 104.163 34.732 103.729 34.9485C103.294 35.165 102.829 35.2733 102.317 35.2733Z" fill="white"/>
<path d="M106.972 32.2578V35.1341H106.553V28.531H106.972V31.2991C107.111 30.9898 107.329 30.7269 107.623 30.5259C107.918 30.3248 108.229 30.232 108.585 30.232C109.097 30.232 109.501 30.3867 109.796 30.696C110.091 31.0052 110.246 31.4382 110.246 32.0104V35.1496H109.827V32.165C109.827 31.6547 109.718 31.2681 109.485 31.0052C109.253 30.7269 108.927 30.6032 108.492 30.6032C108.213 30.6032 107.949 30.6805 107.732 30.8197C107.499 30.9743 107.329 31.1753 107.189 31.4228C107.049 31.6857 106.987 31.964 106.987 32.2887L106.972 32.2578Z" fill="white"/>
<path d="M114.697 35.1341V34.1599C114.573 34.4846 114.356 34.7475 114.061 34.9331C113.767 35.1186 113.41 35.2269 113.022 35.2269C112.525 35.2269 112.122 35.1032 111.827 34.8403C111.532 34.5929 111.377 34.2372 111.377 33.8197C111.377 33.3403 111.563 32.9846 111.936 32.7527C112.308 32.5207 112.867 32.397 113.611 32.397C113.767 32.397 113.922 32.397 114.061 32.397C114.201 32.397 114.418 32.4124 114.682 32.4434V31.9949C114.682 31.5465 114.573 31.1908 114.341 30.9434C114.108 30.6805 113.798 30.5568 113.394 30.5568C112.96 30.5568 112.618 30.6805 112.355 30.9434C112.106 31.2063 111.967 31.5465 111.967 31.9795H111.563C111.563 31.6238 111.641 31.3145 111.796 31.0516C111.951 30.7887 112.153 30.5877 112.432 30.4331C112.696 30.2784 113.022 30.2166 113.379 30.2166C113.922 30.2166 114.341 30.3712 114.635 30.665C114.93 30.9588 115.085 31.3918 115.085 31.9331V35.1186H114.682L114.697 35.1341ZM111.796 33.8042C111.796 34.129 111.905 34.3764 112.137 34.5929C112.37 34.7939 112.665 34.9021 113.053 34.9021C113.549 34.9021 113.937 34.7475 114.232 34.4382C114.527 34.129 114.682 33.7269 114.682 33.2166V32.7681C114.449 32.7527 114.248 32.7372 114.077 32.7217C113.906 32.7217 113.751 32.7217 113.627 32.7217C113.006 32.7217 112.556 32.8145 112.246 33.0001C111.936 33.1856 111.796 33.464 111.796 33.8351V33.8042Z" fill="white"/>
<path d="M116.964 32.4588V35.1341H116.545V30.3094H116.948V31.4691C117.104 31.098 117.352 30.7887 117.678 30.5568C118.003 30.3248 118.376 30.2166 118.779 30.2166V30.665C118.453 30.665 118.143 30.7269 117.864 30.8815C117.585 31.0362 117.367 31.2527 117.212 31.5155C117.041 31.7939 116.964 32.1032 116.964 32.4434V32.4588Z" fill="white"/>
<path d="M122.193 34.7321V35.1032C122.084 35.1496 121.976 35.1805 121.883 35.196C121.789 35.2114 121.696 35.2114 121.588 35.2114C121.339 35.2114 121.122 35.165 120.92 35.0723C120.719 34.9795 120.548 34.8403 120.424 34.6393C120.3 34.4382 120.238 34.1599 120.238 33.8351V30.6496H119.043V30.2939H120.238V28.8558H120.672V30.2939H122.239V30.6496H120.672V33.7424C120.672 34.1444 120.765 34.4228 120.951 34.5774C121.138 34.7321 121.37 34.8094 121.65 34.8094C121.743 34.8094 121.836 34.8094 121.929 34.7939C122.022 34.7784 122.1 34.763 122.193 34.7166V34.7321Z" fill="white"/>
<path d="M124.94 35.2424C124.505 35.2424 124.117 35.1341 123.791 34.9176C123.466 34.7011 123.202 34.4073 123.016 34.0207C122.829 33.6341 122.736 33.1856 122.736 32.6753C122.736 32.196 122.829 31.7784 123.016 31.4228C123.202 31.0516 123.466 30.7578 123.791 30.5413C124.117 30.3248 124.49 30.2166 124.893 30.2166C125.234 30.2166 125.529 30.2784 125.793 30.4021C126.057 30.5258 126.29 30.7114 126.476 30.9434C126.662 31.1753 126.802 31.4537 126.895 31.763C126.988 32.0722 127.034 32.4279 127.019 32.83H122.954V32.5052H126.569C126.538 31.9021 126.383 31.4228 126.072 31.0825C125.778 30.7423 125.374 30.5722 124.878 30.5722C124.536 30.5722 124.241 30.665 123.978 30.8506C123.714 31.0362 123.512 31.2836 123.357 31.5929C123.202 31.9021 123.14 32.2733 123.14 32.6908C123.14 33.1393 123.202 33.5259 123.357 33.8661C123.497 34.2063 123.698 34.4537 123.978 34.6393C124.257 34.8248 124.567 34.9021 124.94 34.9021C125.39 34.9021 125.762 34.7784 126.057 34.531C126.352 34.2836 126.538 33.9434 126.615 33.5259H127.034C126.941 34.0516 126.709 34.4692 126.321 34.7784C125.948 35.0877 125.483 35.2424 124.924 35.2424H124.94Z" fill="white"/>
<path d="M32.2124 0H6.28421C2.8085 0 0 2.79898 0 6.26291V32.1032C0 35.5671 2.8085 38.3661 6.28421 38.3661H32.2124C35.6881 38.3661 38.4966 35.5671 38.4966 32.1032V6.26291C38.4966 2.79898 35.6881 0 32.2124 0ZM29.9935 26.5516C27.9298 30.2011 24.392 32.3506 20.0629 32.5826C19.7681 32.598 19.4733 32.6135 19.1785 32.6135C14.4304 32.6135 10.6288 30.4795 8.45653 26.598V26.5671C5.77216 21.7578 6.09801 15.3403 9.29442 10.1908C9.34097 10.1134 9.41855 10.0206 9.49614 9.9124C9.85302 9.44848 10.3495 8.84539 10.1478 8.14951C10.0702 7.85569 9.88405 7.67013 9.7444 7.54641C9.80647 7.14435 9.94612 6.27837 10.0547 5.81445C10.2875 5.79899 10.9081 5.78352 11.5754 5.78352C12.0874 5.78352 12.4132 5.78352 12.615 5.79899C12.646 6.38662 12.5839 7.97941 12.5374 8.31961C12.4598 8.53611 12.0409 9.15467 11.7926 9.54127C11.4978 9.98972 11.2185 10.3918 11.0633 10.732C8.65824 15.5258 8.54963 20.3506 10.753 23.9846C12.5684 26.9382 15.7183 28.7011 19.2095 28.7011C22.7007 28.7011 25.9127 26.9073 27.7126 23.9073C29.8849 20.2887 29.7608 15.4949 27.3557 10.7475C27.2005 10.4382 26.9368 10.0206 26.6419 9.58766C26.3782 9.20106 25.9437 8.53611 25.8971 8.366C25.8351 8.04126 25.7885 6.46394 25.8196 5.82991C25.9902 5.82991 26.3006 5.79899 26.7816 5.79899C27.4333 5.79899 28.116 5.82991 28.3332 5.84538H28.3798C28.4884 6.34023 28.6436 7.19074 28.6901 7.59281C28.4884 7.77837 28.116 8.1959 28.2867 8.89178C28.3643 9.17013 28.5815 9.51034 29.2177 10.4227C29.4815 10.7938 29.7763 11.2268 29.8694 11.4124C32.4451 16.1908 32.4762 22.1289 29.9935 26.5516Z" fill="white"/>
</svg>
