<svg width="24" height="34" viewBox="0 0 24 34" fill="none" xmlns="http://www.w3.org/2000/svg">
<path d="M19.2301 12.3246C21.6294 12.0509 23.6305 13.9835 23.8777 16.5879C24.2481 20.4897 23.6341 25.0069 23.8912 28.9738C23.6791 31.355 22.0834 33.1423 19.9043 33.3557C14.8045 33.0287 9.2444 33.7984 4.19852 33.3626C1.94122 33.168 0.331173 31.4429 0.0947458 28.9738C0.306002 25.0336 -0.192923 20.7327 0.0884531 16.8359C0.288922 14.0566 2.17495 12.0865 4.75588 12.3246C4.80442 9.44551 4.37202 6.92012 5.76092 4.32754C8.42095 -0.638273 15.1578 -0.798334 18.0327 4.0005C19.6238 6.65533 19.1995 9.29533 19.231 12.3246H19.2301ZM17.0222 12.3236V8.07611C17.0222 4.93517 13.964 2.7299 11.3183 3.02137C9.31992 3.2417 6.96193 5.69003 6.96193 7.94174V12.3236H17.0222ZM11.8433 18.5541C9.49432 18.7527 8.95853 22.0063 10.8383 23.4409C10.9327 24.5356 10.7385 25.9149 10.7735 26.9434C10.8086 27.972 11.8065 28.6063 12.6524 28.0846C13.5927 27.5046 13.0938 24.508 13.1468 23.4429C14.0647 22.4618 14.6715 21.5004 14.1006 20.052C13.7509 19.1647 12.7252 18.48 11.8433 18.5541Z" fill="#136A86"/>
</svg>
